<?xml version="1.0" standalone="no"?>
<!DOCTYPE svg PUBLIC "-//W3C//DTD SVG 20010904//EN"
 "http://www.w3.org/TR/2001/REC-SVG-20010904/DTD/svg10.dtd">
<svg version="1.0" xmlns="http://www.w3.org/2000/svg"
 width="925.000000pt" height="925.000000pt" viewBox="0 0 925.000000 925.000000"
 preserveAspectRatio="xMidYMid meet">
<metadata>
Created by potrace 1.14, written by Peter Selinger 2001-2017
</metadata>
<g transform="translate(0.000000,925.000000) scale(0.100000,-0.100000)"
fill="#000000" stroke="none">
<path d="M7196 8437 c3 -10 9 -15 12 -12 3 3 0 11 -7 18 -10 9 -11 8 -5 -6z"/>
<path d="M7106 8428 c3 -5 10 -6 15 -3 13 9 11 12 -6 12 -8 0 -12 -4 -9 -9z"/>
<path d="M7276 8432 c-3 -5 1 -9 9 -9 8 0 12 4 9 9 -3 4 -7 8 -9 8 -2 0 -6 -4
-9 -8z"/>
<path d="M7009 8413 c-13 -16 -12 -17 4 -4 9 7 17 15 17 17 0 8 -8 3 -21 -13z"/>
<path d="M7071 8417 c-8 -10 -7 -14 2 -14 8 0 14 6 14 14 0 7 -1 13 -2 13 -2
0 -8 -6 -14 -13z"/>
<path d="M7173 8405 c0 -8 4 -12 9 -9 4 3 8 9 8 15 0 5 -4 9 -8 9 -5 0 -9 -7
-9 -15z"/>
<path d="M7235 8410 c3 -5 8 -10 11 -10 2 0 4 5 4 10 0 6 -5 10 -11 10 -5 0
-7 -4 -4 -10z"/>
<path d="M7035 8399 c-4 -6 -5 -12 -2 -15 2 -3 7 2 10 11 7 17 1 20 -8 4z"/>
<path d="M7115 8399 c-4 -6 -5 -12 -2 -15 2 -3 7 2 10 11 7 17 1 20 -8 4z"/>
<path d="M6975 8379 c-4 -6 -5 -12 -2 -15 2 -3 7 2 10 11 7 17 1 20 -8 4z"/>
<path d="M7373 8367 c0 -12 1 -16 4 -9 4 10 10 9 26 -5 15 -12 18 -13 9 -2 -6
9 -8 20 -4 25 4 5 3 6 -2 2 -5 -4 -14 -4 -20 2 -8 6 -12 2 -13 -13z"/>
<path d="M6905 8370 c-3 -6 1 -7 9 -4 18 7 21 14 7 14 -6 0 -13 -4 -16 -10z"/>
<path d="M7239 8343 c-13 -16 -12 -17 4 -4 9 7 17 15 17 17 0 8 -8 3 -21 -13z"/>
<path d="M6886 8329 c4 -8 30 -6 38 2 3 3 -5 5 -19 5 -13 0 -22 -3 -19 -7z"/>
<path d="M7280 8330 c-8 -5 -10 -10 -5 -10 6 0 17 5 25 10 8 5 11 10 5 10 -5
0 -17 -5 -25 -10z"/>
<path d="M7326 8332 c-3 -5 1 -9 9 -9 8 0 12 4 9 9 -3 4 -7 8 -9 8 -2 0 -6 -4
-9 -8z"/>
<path d="M7374 8332 c4 -3 14 -7 22 -8 9 -1 13 0 10 4 -4 3 -14 7 -22 8 -9 1
-13 0 -10 -4z"/>
<path d="M6855 8310 c-3 -5 -1 -10 4 -10 6 0 11 5 11 10 0 6 -2 10 -4 10 -3 0
-8 -4 -11 -10z"/>
<path d="M7035 8312 c3 -3 -3 -15 -12 -26 -14 -15 -14 -18 -2 -8 9 6 18 11 20
9 2 -1 3 0 2 2 -2 2 2 9 7 16 7 8 5 12 -5 12 -8 0 -13 -3 -10 -5z"/>
<path d="M7180 8316 c0 -2 8 -10 18 -17 15 -13 16 -12 3 4 -13 16 -21 21 -21
13z"/>
<path d="M7314 8303 c19 -23 37 -22 35 0 0 8 -2 8 -6 -1 -4 -10 -10 -9 -27 5
l-21 18 19 -22z"/>
<path d="M6937 8303 c-10 -9 -9 -23 1 -23 5 0 9 7 9 15 0 17 -1 18 -10 8z"/>
<path d="M7099 8308 c-5 -18 -6 -38 -1 -34 7 8 12 36 6 36 -2 0 -4 -1 -5 -2z"/>
<path d="M7159 8305 c-1 -3 -2 -8 -3 -12 -1 -5 -5 -15 -10 -23 -7 -12 -6 -13
4 -3 13 12 23 43 14 43 -2 0 -5 -2 -5 -5z"/>
<path d="M7399 8285 c-1 -3 -2 -13 -3 -22 -1 -10 -4 -23 -8 -28 -4 -6 3 -12
15 -12 12 -1 17 1 11 5 -6 4 -10 19 -9 35 2 23 -2 37 -6 22z"/>
<path d="M7061 8254 c0 -11 3 -14 6 -6 3 7 2 16 -1 19 -3 4 -6 -2 -5 -13z"/>
<path d="M7339 8258 c7 -9 9 -23 5 -30 -6 -10 -4 -11 7 0 11 10 10 15 -6 30
-17 15 -18 15 -6 0z"/>
<path d="M6915 8250 c3 -5 8 -10 11 -10 2 0 4 5 4 10 0 6 -5 10 -11 10 -5 0
-7 -4 -4 -10z"/>
<path d="M6945 8250 c-3 -6 1 -7 9 -4 18 7 21 14 7 14 -6 0 -13 -4 -16 -10z"/>
<path d="M7235 8250 c3 -5 8 -10 11 -10 2 0 4 5 4 10 0 6 -5 10 -11 10 -5 0
-7 -4 -4 -10z"/>
<path d="M7426 8248 c3 -4 9 -8 15 -8 5 0 9 4 9 8 0 5 -7 9 -15 9 -8 0 -12 -4
-9 -9z"/>
<path d="M6799 8238 c-6 -20 -6 -39 0 -42 4 -3 7 6 7 20 0 20 -4 32 -7 22z"/>
<path d="M7513 8225 c0 -8 4 -12 9 -9 5 3 6 10 3 15 -9 13 -12 11 -12 -6z"/>
<path d="M6927 8209 c7 -7 15 -10 18 -7 3 3 -2 9 -12 12 -14 6 -15 5 -6 -5z"/>
<path d="M6990 8212 c0 -4 11 -8 25 -8 28 0 24 8 -5 13 -11 2 -20 -1 -20 -5z"/>
<path d="M7070 8209 c0 -5 5 -7 10 -4 6 3 10 8 10 11 0 2 -4 4 -10 4 -5 0 -10
-5 -10 -11z"/>
<path d="M7247 8209 c7 -7 15 -10 18 -7 3 3 -2 9 -12 12 -14 6 -15 5 -6 -5z"/>
<path d="M7356 8203 c-6 -14 -5 -15 5 -6 7 7 10 15 7 18 -3 3 -9 -2 -12 -12z"/>
<path d="M6829 8193 c-13 -16 -12 -17 4 -4 9 7 17 15 17 17 0 8 -8 3 -21 -13z"/>
<path d="M7110 8196 c0 -2 7 -7 16 -10 8 -3 12 -2 9 4 -6 10 -25 14 -25 6z"/>
<path d="M7313 8177 c-1 -11 -1 -18 0 -16 2 2 8 11 15 20 9 12 9 16 -1 16 -7
0 -14 -9 -14 -20z"/>
<path d="M7535 8191 c-3 -5 -2 -12 3 -15 5 -3 9 1 9 9 0 17 -3 19 -12 6z"/>
<path d="M6980 8176 c8 -10 15 -25 16 -33 4 -24 13 -27 11 -4 -1 12 -10 30
-21 39 -20 16 -20 16 -6 -2z"/>
<path d="M6896 8168 c3 -4 11 -5 19 -1 21 7 19 12 -4 10 -11 0 -18 -5 -15 -9z"/>
<path d="M7235 8170 c3 -5 8 -10 11 -10 2 0 4 5 4 10 0 6 -5 10 -11 10 -5 0
-7 -4 -4 -10z"/>
<path d="M7401 8166 c-9 -11 -9 -16 1 -22 7 -4 10 -4 6 1 -4 4 -3 14 3 22 6 7
9 13 6 13 -2 0 -10 -6 -16 -14z"/>
<path d="M7470 8170 c0 -5 5 -10 11 -10 5 0 7 5 4 10 -3 6 -8 10 -11 10 -2 0
-4 -4 -4 -10z"/>
<path d="M7035 8159 c-4 -6 -5 -12 -2 -15 2 -3 7 2 10 11 7 17 1 20 -8 4z"/>
<path d="M7343 8134 c9 -11 15 -23 12 -26 -3 -2 2 -5 10 -5 10 0 12 4 5 12 -5
7 -6 16 -2 21 4 5 3 6 -2 2 -5 -4 -16 -2 -25 4 -12 10 -12 7 2 -8z"/>
<path d="M7454 8130 c0 -13 4 -16 10 -10 7 7 7 13 0 20 -6 6 -10 3 -10 -10z"/>
<path d="M7489 8133 c-13 -16 -12 -17 4 -4 9 7 17 15 17 17 0 8 -8 3 -21 -13z"/>
<path d="M6911 8117 c-13 -21 -12 -21 5 -5 10 10 16 20 13 22 -3 3 -11 -5 -18
-17z"/>
<path d="M7530 8126 c7 -7 13 -7 20 0 6 6 3 10 -10 10 -13 0 -16 -4 -10 -10z"/>
<path d="M7190 8126 c0 -2 8 -10 18 -17 15 -13 16 -12 3 4 -13 16 -21 21 -21
13z"/>
<path d="M6826 8112 c-2 -4 4 -8 14 -8 10 0 16 4 14 8 -3 4 -9 8 -14 8 -5 0
-11 -4 -14 -8z"/>
<path d="M6970 8106 c0 -2 8 -10 18 -17 15 -13 16 -12 3 4 -13 16 -21 21 -21
13z"/>
<path d="M7070 8095 c0 -7 30 -13 34 -7 3 4 -4 9 -15 9 -10 1 -19 0 -19 -2z"/>
<path d="M7326 8092 c-3 -5 1 -9 9 -9 8 0 12 4 9 9 -3 4 -7 8 -9 8 -2 0 -6 -4
-9 -8z"/>
<path d="M7475 8090 c-3 -5 -1 -10 4 -10 6 0 11 5 11 10 0 6 -2 10 -4 10 -3 0
-8 -4 -11 -10z"/>
<path d="M7536 8088 c3 -5 10 -6 15 -3 13 9 11 12 -6 12 -8 0 -12 -4 -9 -9z"/>
<path d="M6959 8088 c-5 -18 -6 -38 -1 -34 7 8 12 36 6 36 -2 0 -4 -1 -5 -2z"/>
<path d="M7274 8076 c1 -8 5 -18 8 -22 4 -3 5 1 4 10 -1 8 -5 18 -8 22 -4 3
-5 -1 -4 -10z"/>
<path d="M6755 8070 c-3 -5 -1 -10 4 -10 6 0 11 5 11 10 0 6 -2 10 -4 10 -3 0
-8 -4 -11 -10z"/>
<path d="M6830 8066 c7 -7 13 -7 20 0 6 6 3 10 -10 10 -13 0 -16 -4 -10 -10z"/>
<path d="M6906 8068 c3 -4 9 -8 15 -8 5 0 9 4 9 8 0 5 -7 9 -15 9 -8 0 -12 -4
-9 -9z"/>
<path d="M7390 8076 c0 -2 7 -7 16 -10 8 -3 12 -2 9 4 -6 10 -25 14 -25 6z"/>
<path d="M7095 8061 c-3 -5 -2 -12 3 -15 5 -3 9 1 9 9 0 17 -3 19 -12 6z"/>
<path d="M7214 8059 c-3 -6 -2 -15 3 -20 5 -5 9 -1 9 11 0 23 -2 24 -12 9z"/>
<path d="M7454 8056 c1 -8 5 -18 8 -22 4 -3 5 1 4 10 -1 8 -5 18 -8 22 -4 3
-5 -1 -4 -10z"/>
<path d="M7126 8051 c-3 -4 6 -7 19 -7 14 0 22 2 19 5 -8 8 -34 10 -38 2z"/>
<path d="M7366 8051 c-19 -7 -19 -8 0 -13 13 -3 21 0 21 8 0 8 -1 14 -1 13 -1
0 -10 -4 -20 -8z"/>
<path d="M7520 8056 c0 -2 8 -10 18 -17 15 -13 16 -12 3 4 -13 16 -21 21 -21
13z"/>
<path d="M6950 8031 c0 -6 4 -13 10 -16 6 -3 7 1 4 9 -7 18 -14 21 -14 7z"/>
<path d="M7036 8023 c-6 -14 -5 -15 5 -6 7 7 10 15 7 18 -3 3 -9 -2 -12 -12z"/>
<path d="M6863 8015 c17 -19 17 -19 35 0 16 18 16 18 0 6 -15 -11 -21 -11 -35
0 -17 12 -17 12 0 -6z"/>
<path d="M7090 8026 c0 -2 8 -10 18 -17 15 -13 16 -12 3 4 -13 16 -21 21 -21
13z"/>
<path d="M7286 8021 c-19 -7 -19 -8 0 -13 13 -3 21 0 21 8 0 8 -1 14 -1 13 -1
0 -10 -4 -20 -8z"/>
<path d="M7418 8018 c8 -9 11 -21 8 -26 -3 -5 0 -9 7 -9 7 0 13 8 13 18 0 10
-2 16 -5 14 -2 -3 -11 1 -20 8 -14 10 -14 10 -3 -5z"/>
<path d="M7059 8003 c-13 -16 -12 -17 4 -4 9 7 17 15 17 17 0 8 -8 3 -21 -13z"/>
<path d="M7237 8002 c-15 -16 -15 -19 -2 -19 8 0 13 3 10 5 -3 3 0 11 6 19 17
20 5 16 -14 -5z"/>
<path d="M7473 8002 c-8 -14 -8 -19 1 -19 7 0 13 9 13 19 1 10 1 18 0 18 -1 0
-7 -8 -14 -18z"/>
<path d="M7517 8002 c-15 -16 -15 -19 -2 -19 8 0 13 3 10 5 -3 3 0 11 6 19 17
20 5 16 -14 -5z"/>
<path d="M7551 7997 c-13 -21 -12 -21 5 -5 10 10 16 20 13 22 -3 3 -11 -5 -18
-17z"/>
<path d="M7266 7992 c-2 -4 4 -8 14 -8 10 0 16 4 14 8 -3 4 -9 8 -14 8 -5 0
-11 -4 -14 -8z"/>
<path d="M6755 7979 c-4 -6 -5 -12 -2 -15 2 -3 7 2 10 11 7 17 1 20 -8 4z"/>
<path d="M6875 7981 c-3 -6 -15 -8 -27 -6 -11 3 -18 1 -14 -2 12 -13 35 -11
47 3 6 8 9 14 6 14 -3 0 -8 -4 -12 -9z"/>
<path d="M7118 7980 c13 -15 65 -23 57 -9 -3 4 -13 6 -23 4 -9 -1 -24 2 -32 8
-12 9 -13 9 -2 -3z"/>
<path d="M4359 7960 c-15 -8 -45 -37 -66 -65 -20 -27 -41 -51 -45 -53 -4 -2
-8 -10 -8 -18 0 -8 -7 -17 -15 -20 -8 -4 -13 -9 -11 -13 3 -4 -4 -20 -15 -37
-11 -16 -34 -58 -51 -94 -18 -36 -37 -68 -43 -72 -5 -4 -7 -8 -3 -8 4 0 -3
-24 -16 -52 -24 -57 -35 -84 -37 -96 0 -4 -4 -11 -9 -17 -4 -5 -11 -25 -15
-42 -3 -18 -11 -33 -16 -33 -6 0 -8 -4 -5 -8 2 -4 -4 -39 -15 -77 -16 -59 -35
-142 -55 -240 -2 -11 -5 -32 -6 -47 -1 -16 -5 -28 -8 -28 -3 0 -6 -17 -7 -37
-4 -121 -15 -299 -19 -302 -2 -2 1 -10 7 -18 6 -7 7 -13 2 -13 -11 0 -11 -29
1 -48 4 -6 4 -12 -1 -12 -4 0 -8 -36 -8 -80 0 -44 4 -80 9 -80 5 0 4 -6 -2
-12 -13 -16 -13 -28 -1 -50 5 -10 6 -18 2 -18 -4 0 -8 -36 -8 -80 0 -44 4 -80
9 -80 5 0 2 -7 -5 -17 -8 -9 -12 -19 -11 -22 17 -29 22 -41 15 -41 -4 0 -8
-36 -8 -80 0 -44 4 -80 9 -80 5 0 2 -7 -5 -17 -8 -9 -12 -19 -11 -22 17 -29
22 -41 15 -41 -10 0 -8 -153 1 -169 4 -6 3 -11 -3 -11 -10 0 -7 -31 4 -50 3
-6 3 -10 -2 -10 -4 0 -8 -54 -8 -120 0 -66 4 -120 8 -120 5 0 5 -6 0 -12 -11
-18 -11 -30 -1 -50 5 -10 5 -18 1 -18 -12 0 -10 -164 2 -172 6 -5 6 -8 -1 -8
-12 0 -12 -29 0 -48 4 -6 3 -12 -1 -12 -5 0 -8 -19 -7 -43 l2 -43 -37 1 -36 0
-1 85 c-2 134 -14 284 -28 345 -3 17 -8 41 -11 54 -28 150 -160 447 -228 516
-9 9 -22 24 -29 33 -17 23 -62 42 -87 37 -28 -5 -65 -34 -90 -71 -12 -16 -30
-40 -41 -52 -12 -12 -18 -22 -14 -22 3 0 1 -7 -6 -15 -19 -23 -60 -106 -60
-122 0 -7 -4 -13 -9 -13 -5 0 -11 -10 -14 -22 -3 -13 -15 -50 -26 -83 -40
-112 -51 -150 -62 -222 -8 -48 -16 -70 -23 -66 -7 4 -8 2 -1 -5 12 -14 7 -104
-6 -96 -5 3 -5 -5 -1 -17 5 -12 6 -40 2 -61 -4 -22 -3 -38 2 -38 5 0 7 -4 3
-9 -7 -12 -8 -2519 -1 -2530 3 -4 -1 -8 -9 -8 -8 0 -15 4 -15 9 0 4 -9 8 -20
8 -11 0 -20 5 -20 10 0 6 -8 10 -18 10 -10 0 -22 4 -28 8 -9 9 -114 35 -139
35 -8 0 -15 3 -15 6 0 13 -207 3 -273 -13 -37 -9 -98 -30 -135 -47 -37 -18
-69 -32 -72 -32 -3 0 -10 -7 -17 -16 -7 -9 -13 -12 -13 -7 0 5 -8 0 -18 -11
-9 -11 -33 -30 -52 -42 -19 -11 -31 -21 -27 -21 5 0 1 -7 -7 -16 -9 -8 -20
-13 -25 -10 -5 3 -8 -2 -7 -12 0 -9 -5 -16 -12 -14 -8 1 -11 -2 -8 -6 3 -5 -6
-22 -20 -37 -21 -23 -95 -154 -100 -177 -1 -5 -3 -10 -4 -13 -1 -3 -4 -9 -5
-15 -1 -5 -3 -11 -5 -12 -3 -5 -19 -73 -25 -113 -6 -33 -13 -57 -35 -115 -11
-30 -23 -71 -26 -90 -4 -19 -8 -42 -9 -50 -2 -8 -4 -20 -4 -26 -1 -7 -30 -26
-65 -44 -35 -17 -72 -40 -82 -51 -9 -10 -21 -19 -27 -19 -5 0 -18 -11 -29 -25
-11 -14 -27 -25 -35 -25 -9 0 -14 -3 -10 -6 9 -10 -30 -47 -42 -40 -6 4 -9 1
-5 -7 3 -8 -1 -21 -9 -28 -7 -8 -28 -42 -47 -77 -23 -44 -38 -61 -48 -57 -12
4 -13 3 -3 -9 15 -18 5 -40 -12 -29 -7 4 -6 0 2 -10 9 -12 10 -17 2 -17 -7 0
-10 -3 -8 -7 3 -5 0 -19 -5 -33 -6 -14 -12 -36 -13 -50 -2 -14 -6 -47 -10 -75
-11 -83 -4 -187 21 -275 3 -13 25 -15 131 -14 81 0 131 -4 135 -10 5 -7 8 -7
8 -1 0 17 114 12 136 -5 17 -14 18 -13 7 1 -11 14 -4 15 65 15 57 0 80 -4 90
-15 11 -14 11 -14 7 -1 -8 24 294 24 313 1 11 -14 11 -14 7 -1 -5 14 11 16
119 15 68 0 128 -3 132 -7 4 -4 13 -3 21 3 10 9 13 8 13 -2 0 -12 2 -12 9 -1
4 8 12 14 16 14 4 0 12 -6 16 -14 5 -7 9 -8 9 -3 0 13 69 13 89 1 10 -6 12 -5
7 2 -4 7 -3 12 3 12 5 0 13 -5 16 -10 5 -8 11 -7 21 1 11 9 14 8 14 -2 0 -9 3
-10 8 -4 6 9 57 13 72 6 17 -8 41 -8 46 0 3 5 10 7 15 3 5 -3 6 -11 2 -17 -4
-7 1 -5 11 3 23 18 86 23 105 7 12 -9 13 -9 7 1 -4 6 -3 12 3 12 5 0 13 -5 16
-10 4 -6 11 -7 17 -4 16 10 79 14 73 4 -3 -4 3 -7 12 -5 10 2 18 4 18 5 0 1
17 3 38 5 23 2 37 -1 37 -8 0 -8 3 -7 9 1 11 17 21 17 32 0 5 -7 9 -8 9 -3 0
12 69 13 86 3 6 -4 14 -4 18 -1 12 13 46 13 46 0 0 -7 3 -8 8 -2 10 14 65 15
74 1 4 -6 8 -6 8 -1 0 6 20 10 45 11 24 1 42 -2 40 -7 -3 -4 3 -6 12 -4 10 2
18 4 18 5 0 9 83 6 94 -3 10 -8 13 -8 8 -1 -10 18 66 12 81 -6 11 -13 11 -13
7 1 -5 12 0 16 17 15 13 -1 29 -6 37 -10 9 -6 12 -5 7 2 -7 11 12 11 31 -1 6
-4 15 -3 18 3 5 8 11 8 20 0 10 -8 15 -8 20 0 5 8 11 8 19 1 7 -6 16 -8 19 -5
9 10 78 14 72 4 -3 -4 3 -7 12 -5 10 2 18 4 18 5 0 1 17 3 38 5 23 2 37 -1 37
-8 0 -8 3 -7 9 1 11 17 21 17 32 0 5 -7 9 -8 9 -3 0 13 69 13 89 1 10 -6 12
-5 7 2 -4 7 -2 12 3 12 6 0 11 -6 11 -12 0 -8 3 -9 8 -3 4 6 32 10 62 10 30 0
58 -4 62 -10 5 -7 8 -6 8 1 0 14 30 14 30 0 0 -6 4 -5 9 3 7 12 13 12 24 3 7
-7 17 -8 21 -4 11 10 60 9 68 -3 5 -6 8 -5 8 3 0 6 5 12 11 12 5 0 7 -5 3 -12
-5 -7 -3 -8 7 -2 17 10 70 14 84 6 17 -10 35 -11 41 -1 3 5 10 7 15 3 5 -3 6
-11 2 -17 -4 -7 1 -5 11 3 23 18 86 23 105 7 12 -9 13 -9 7 0 -4 7 -3 13 3 13
5 0 12 -4 15 -9 5 -7 41 -8 41 -1 0 6 71 7 80 2 17 -10 35 -11 41 -1 3 5 10 7
15 3 5 -3 6 -11 2 -17 -4 -7 1 -5 11 3 23 18 86 23 105 7 12 -9 13 -9 7 1 -4
6 -3 12 3 12 5 0 12 -4 15 -9 5 -7 41 -8 41 -1 0 6 71 7 80 2 17 -10 35 -11
41 -1 3 5 10 7 15 3 5 -3 6 -11 2 -17 -4 -7 1 -5 11 3 23 18 86 23 105 7 12
-9 13 -9 7 1 -4 6 -3 12 3 12 5 0 13 -5 16 -10 4 -6 13 -7 23 -2 21 10 33 10
51 -2 9 -6 12 -5 7 2 -4 7 1 10 14 9 11 -1 20 -6 20 -12 0 -6 3 -7 8 0 9 13
55 14 64 0 5 -6 8 -6 8 0 0 11 119 13 136 3 6 -4 14 -4 18 -1 12 13 46 13 46
0 0 -7 3 -8 8 -2 10 14 65 15 74 1 4 -6 8 -6 8 -1 0 6 20 10 45 11 24 1 42 -2
40 -7 -3 -4 3 -6 12 -4 10 2 18 4 18 5 0 1 17 3 38 5 23 2 37 -1 37 -8 0 -8 3
-7 9 1 4 8 12 14 16 14 4 0 12 -6 16 -14 5 -7 9 -8 9 -3 0 12 69 13 86 3 6 -4
14 -4 18 -1 12 13 46 13 46 0 0 -7 3 -8 8 -2 10 14 65 15 74 1 4 -6 8 -6 8 -1
0 6 20 10 45 11 24 1 42 -2 40 -7 -3 -4 3 -6 12 -4 10 2 18 4 18 5 0 1 17 3
38 5 23 2 37 -1 37 -8 0 -8 3 -7 9 1 4 8 12 14 16 14 4 0 12 -6 16 -14 5 -7 9
-8 9 -3 0 12 69 13 88 1 7 -4 18 -4 25 2 14 10 87 10 104 -1 6 -4 14 -3 18 3
4 6 11 8 16 4 5 -3 6 -11 2 -17 -4 -7 1 -5 11 3 23 18 86 23 105 7 12 -9 13
-9 7 1 -4 6 -3 12 1 12 5 0 15 -6 22 -12 9 -9 12 -9 7 -1 -3 6 -1 13 6 15 7 3
13 20 14 39 3 58 4 60 16 53 7 -5 8 -3 3 7 -11 17 -14 50 -5 44 12 -8 -5 191
-20 231 -5 13 -7 24 -4 24 4 0 1 6 -5 14 -6 8 -11 18 -10 22 4 17 -49 134 -66
146 -5 4 -6 8 -1 8 5 0 -1 9 -14 20 -13 11 -20 20 -16 20 6 0 -28 41 -79 94
-36 37 -96 84 -150 116 -22 13 -42 26 -45 29 -3 4 -12 7 -20 8 -19 2 -81 25
-100 38 -8 5 -27 8 -42 6 -16 -1 -28 2 -28 7 0 5 -8 9 -17 8 -13 -1 -17 7 -18
29 0 17 -2 32 -5 35 -3 3 -11 23 -19 45 -21 60 -54 129 -65 137 -6 4 -7 8 -3
8 4 0 -3 15 -17 33 -15 19 -26 36 -26 40 0 8 -69 85 -104 116 -16 14 -40 36
-54 48 -14 13 -28 23 -33 23 -4 0 -14 6 -21 13 -24 24 -177 93 -214 96 -8 0
-13 4 -11 9 3 4 -16 8 -41 10 -25 1 -50 8 -54 15 -6 9 -8 9 -8 -1 0 -7 -5 -10
-11 -6 -12 7 -182 9 -195 2 -5 -3 -21 -5 -36 -4 -16 1 -28 -2 -28 -7 0 -4 -6
-7 -12 -6 -7 1 -20 0 -28 -4 -8 -3 -41 -15 -73 -26 -32 -12 -76 -30 -97 -41
l-40 -20 0 30 c0 16 0 31 1 33 0 1 -4 14 -10 28 -7 19 -6 30 2 39 9 10 9 11 0
6 -9 -5 -13 2 -13 23 0 16 -2 36 -5 43 -5 12 13 14 102 14 59 -1 114 -5 122
-10 10 -6 12 -6 7 2 -7 11 6 17 28 13 5 -1 4 4 -2 12 -16 19 -15 236 1 256 9
12 9 13 0 7 -18 -10 -17 335 0 346 9 6 9 8 0 8 -9 0 -13 18 -13 55 0 37 4 55
13 55 9 0 9 2 0 8 -10 6 -12 217 -12 927 0 506 0 922 -1 925 -1 3 -3 34 -4 70
-2 36 -5 65 -6 65 -3 0 -9 41 -12 85 -2 25 -5 47 -8 50 -4 4 -26 76 -34 115
-8 35 -19 67 -51 138 -9 20 -13 43 -9 50 4 6 4 9 -1 5 -4 -4 -23 23 -43 60
-63 123 -134 210 -171 213 -53 5 -68 -2 -113 -52 -27 -29 -48 -59 -48 -66 0
-7 -4 -13 -8 -13 -5 0 -17 -18 -27 -40 -10 -22 -22 -40 -27 -40 -4 0 -8 -4 -8
-10 0 -5 -11 -33 -23 -62 -34 -76 -64 -156 -78 -208 -7 -25 -14 -49 -15 -55
-30 -108 -44 -242 -45 -415 l0 -105 -47 0 -47 0 -2 865 c-1 476 -2 881 -3 900
0 19 0 42 0 50 1 8 -2 38 -5 65 -3 28 -7 80 -9 116 -2 37 -6 71 -10 77 -3 5
-8 29 -10 53 -3 24 -5 44 -6 44 -2 0 -5 16 -14 60 -5 25 -22 89 -51 195 -10
38 -49 136 -57 147 -6 7 -8 20 -4 28 3 8 1 15 -3 15 -5 0 -17 21 -27 48 -10
26 -20 49 -23 52 -4 3 -22 37 -41 75 -19 39 -38 72 -42 73 -5 2 -8 10 -8 17 0
8 -11 26 -25 41 -14 15 -25 31 -25 36 0 6 -25 34 -55 64 -51 50 -58 55 -96 52
-23 -1 -55 -9 -70 -18z m-459 -3141 c7 -12 7 -20 0 -24 -7 -4 -7 -13 0 -26 6
-10 7 -19 3 -19 -7 0 -9 -212 -2 -230 1 -3 0 -9 -1 -15 -2 -5 -2 -61 -2 -124
1 -77 -3 -120 -11 -130 -8 -10 -8 -13 0 -8 8 5 11 -40 11 -175 0 -101 1 -187
2 -193 1 -5 1 -14 0 -20 -7 -34 -3 -231 5 -237 6 -5 6 -8 -1 -8 -7 0 -10 -13
-8 -32 2 -17 -2 -38 -9 -46 -6 -9 -7 -13 -1 -9 8 4 11 -82 11 -307 0 -172 3
-318 7 -324 4 -7 3 -12 -1 -12 -5 0 -7 -39 -6 -87 3 -134 3 -134 1 -196 -3
-61 2 -71 37 -72 11 -1 19 -7 17 -14 -1 -7 2 -10 8 -6 6 3 7 11 4 17 -4 6 -1
9 7 6 8 -3 22 -1 31 3 9 5 19 5 22 0 3 -4 26 -7 51 -6 l45 2 -5 -46 c-3 -25
-8 -62 -10 -81 -3 -19 -7 -68 -10 -108 -3 -41 -7 -77 -10 -82 -3 -5 -2 -11 2
-13 5 -3 6 -30 5 -60 l-4 -56 -51 -27 c-51 -26 -103 -61 -142 -96 -51 -46 -85
-79 -85 -83 0 -3 -16 -26 -35 -51 -20 -26 -42 -62 -50 -80 -13 -31 -15 -33
-47 -23 -18 5 -46 12 -63 15 -16 3 -32 7 -35 10 -3 3 -6 139 -8 302 -3 332 -5
382 -12 382 -3 0 -7 14 -8 31 -1 16 -3 36 -5 42 -1 9 34 12 130 13 73 0 135 3
138 6 4 3 6 525 6 1160 l1 1154 34 1 c24 0 38 -5 44 -18z m1133 9 c2 -7 4 -37
3 -66 0 -28 2 -52 6 -52 4 0 4 -10 -1 -22 -5 -13 -5 -32 -1 -43 4 -11 4 -34 0
-52 -4 -18 -5 -34 -3 -37 5 -5 5 -49 0 -128 -1 -21 1 -38 5 -38 4 0 4 -10 -1
-22 -5 -13 -5 -32 -1 -43 4 -11 5 -24 2 -29 -8 -14 -8 -66 0 -66 4 0 4 -10 -1
-22 -5 -13 -5 -32 -1 -43 4 -11 4 -29 1 -40 -7 -20 -6 -70 2 -137 2 -21 2 -40
-1 -43 -8 -7 -5 -102 3 -115 3 -6 2 -10 -2 -10 -5 0 -8 -15 -6 -32 4 -39 4
-40 0 -98 -1 -25 0 -57 4 -71 4 -15 3 -32 -1 -40 -5 -7 -5 -20 -1 -28 4 -9 5
-27 1 -41 -4 -14 -3 -37 1 -52 4 -16 5 -28 1 -28 -4 0 -6 -35 -4 -77 3 -89 3
-82 0 -148 -2 -27 0 -65 3 -82 4 -19 3 -33 -2 -33 -6 0 -6 -7 -1 -17 5 -10 6
-29 2 -43 -4 -14 -3 -37 1 -52 4 -16 5 -28 1 -28 -8 0 -8 -118 0 -125 3 -3 2
-23 -2 -45 -4 -21 -4 -44 1 -51 4 -7 6 -16 3 -21 -5 -8 -6 -127 -2 -168 3 -24
4 -25 109 -25 79 0 111 -4 125 -15 17 -14 18 -14 6 1 -11 15 -8 17 27 16 l40
-1 -5 -35 c-3 -20 -7 -47 -10 -61 -2 -14 -6 -61 -9 -105 -3 -44 -8 -87 -10
-95 -3 -8 -1 -21 4 -29 5 -7 5 -26 1 -41 -4 -15 -4 -33 0 -40 5 -9 -2 -29 -19
-54 -79 -116 -132 -276 -134 -409 0 -43 -2 -47 -24 -47 -14 0 -33 -4 -43 -10
-15 -8 -20 -3 -35 43 -9 28 -25 69 -36 91 -10 21 -16 43 -12 49 3 6 1 7 -5 3
-11 -7 -35 26 -27 38 3 3 2 4 -2 1 -3 -3 -17 11 -30 30 -25 37 -83 97 -136
141 -18 14 -25 22 -17 18 13 -7 13 -5 1 9 -11 14 -11 17 0 17 9 0 10 3 4 8
-16 10 -17 54 -2 45 7 -4 6 0 -2 10 -11 14 -11 20 0 34 8 10 9 14 2 10 -15 -9
-14 35 2 45 6 5 6 8 0 8 -6 0 -11 34 -13 78 -1 42 -5 88 -8 102 -3 14 -7 43
-9 65 -2 22 -6 53 -8 68 -3 20 -1 27 9 23 7 -3 16 -1 19 4 4 6 13 7 23 2 19
-10 102 -10 117 0 7 4 9 398 9 1155 l-2 1148 43 3 c27 1 45 -3 48 -10z m-550
-2303 l108 1 -3 -26 c-2 -14 -7 -28 -13 -32 -6 -5 -6 -8 2 -8 8 0 9 -9 3 -30
-5 -16 -7 -37 -5 -47 1 -10 0 -22 -4 -28 -3 -5 -6 -59 -8 -120 -2 -135 -1
-125 -15 -120 -30 10 -97 18 -155 19 -35 1 -64 3 -64 6 -1 3 -3 46 -5 95 -2
50 -5 104 -7 120 -3 17 -7 55 -11 87 -3 31 -7 62 -8 69 -2 8 7 14 20 15 12 1
25 4 29 8 3 3 11 2 17 -2 6 -4 60 -7 119 -7z m-1113 -32 c0 -13 -6 -23 -12
-24 -9 0 -9 -2 -2 -5 8 -4 8 -20 0 -62 -6 -31 -11 -69 -11 -84 1 -16 -1 -28
-3 -28 -5 0 -24 21 -64 71 -43 56 -61 73 -100 99 -21 14 -38 28 -38 33 0 4 -7
7 -15 7 -8 0 -15 4 -15 8 0 5 59 9 130 9 129 -1 130 -1 130 -24z"/>
<path d="M3590 2451 c0 -6 4 -13 10 -16 6 -3 7 1 4 9 -7 18 -14 21 -14 7z"/>
<path d="M3631 2417 c-13 -21 -12 -21 5 -5 10 10 16 20 13 22 -3 3 -11 -5 -18
-17z"/>
<path d="M4896 2492 c-3 -5 1 -9 9 -9 8 0 12 4 9 9 -3 4 -7 8 -9 8 -2 0 -6 -4
-9 -8z"/>
<path d="M4516 2477 c3 -10 9 -15 12 -12 3 3 0 11 -7 18 -10 9 -11 8 -5 -6z"/>
<path d="M3335 2419 c-4 -6 -5 -12 -2 -15 2 -3 7 2 10 11 7 17 1 20 -8 4z"/>
<path d="M7046 7971 c-3 -4 6 -7 19 -7 14 0 22 2 19 5 -8 8 -34 10 -38 2z"/>
<path d="M7190 7970 c0 -5 5 -10 11 -10 5 0 7 5 4 10 -3 6 -8 10 -11 10 -2 0
-4 -4 -4 -10z"/>
<path d="M7305 7970 c-3 -6 1 -7 9 -4 18 7 21 14 7 14 -6 0 -13 -4 -16 -10z"/>
<path d="M7370 7972 c0 -4 10 -9 22 -9 18 -2 20 0 8 7 -18 12 -30 13 -30 2z"/>
<path d="M6915 7952 c3 -3 -1 -12 -7 -21 -8 -10 -4 -9 10 3 26 23 26 23 7 23
-8 0 -13 -3 -10 -5z"/>
<path d="M6997 7938 c19 -21 31 -25 14 -5 -6 8 -9 16 -6 19 3 2 -2 5 -10 5
-13 0 -13 -3 2 -19z"/>
<path d="M7347 7943 c4 -10 2 -14 -4 -10 -5 3 -10 0 -10 -8 0 -10 4 -12 12 -5
7 5 14 8 17 5 2 -3 5 2 5 10 0 8 -6 16 -13 19 -9 3 -11 -1 -7 -11z"/>
<path d="M6849 7933 c-13 -16 -12 -17 4 -4 9 7 17 15 17 17 0 8 -8 3 -21 -13z"/>
<path d="M7245 7930 c-10 -11 -14 -20 -10 -20 4 0 0 -10 -11 -22 l-19 -23 23
19 c12 11 20 21 17 24 -3 3 2 14 12 24 9 10 14 18 11 18 -3 0 -13 -9 -23 -20z"/>
<path d="M7409 7933 c-13 -16 -12 -17 4 -4 9 7 17 15 17 17 0 8 -8 3 -21 -13z"/>
<path d="M6800 7936 c0 -2 8 -10 18 -17 15 -13 16 -12 3 4 -13 16 -21 21 -21
13z"/>
<path d="M6869 7913 c-13 -16 -12 -17 4 -4 9 7 17 15 17 17 0 8 -8 3 -21 -13z"/>
<path d="M7073 7913 c4 -3 -1 -16 -10 -27 -18 -21 -18 -21 5 -2 24 21 29 36
10 36 -6 0 -8 -3 -5 -7z"/>
<path d="M7105 7909 c-3 -4 2 -6 10 -5 21 3 28 13 10 13 -9 0 -18 -4 -20 -8z"/>
<path d="M7190 7906 c7 -7 13 -7 20 0 6 6 3 10 -10 10 -13 0 -16 -4 -10 -10z"/>
<path d="M7265 7909 c-3 -4 2 -6 10 -5 21 3 28 13 10 13 -9 0 -18 -4 -20 -8z"/>
<path d="M7425 7909 c-3 -4 2 -6 10 -5 21 3 28 13 10 13 -9 0 -18 -4 -20 -8z"/>
<path d="M7506 7908 c3 -4 9 -8 15 -8 5 0 9 4 9 8 0 5 -7 9 -15 9 -8 0 -12 -4
-9 -9z"/>
<path d="M6890 7895 c-10 -13 -11 -18 -1 -28 10 -9 11 -8 5 7 -5 12 -4 17 3
13 5 -3 10 0 10 8 0 19 -2 19 -17 0z"/>
<path d="M6937 7899 c7 -7 15 -10 18 -7 3 3 -2 9 -12 12 -14 6 -15 5 -6 -5z"/>
<path d="M6975 7899 c-4 -6 -5 -12 -2 -15 2 -3 7 2 10 11 7 17 1 20 -8 4z"/>
<path d="M7010 7906 c0 -2 8 -10 18 -17 15 -13 16 -12 3 4 -13 16 -21 21 -21
13z"/>
<path d="M7375 7900 c-4 -6 -12 -7 -18 -4 -7 4 -9 4 -5 -1 4 -4 3 -13 -2 -20
-7 -8 -5 -12 5 -12 8 0 13 3 10 5 -3 3 2 14 12 24 9 10 13 18 10 18 -3 0 -9
-5 -12 -10z"/>
<path d="M7151 7897 c2 -1 13 -9 24 -17 19 -14 19 -14 6 3 -7 9 -18 17 -24 17
-6 0 -8 -1 -6 -3z"/>
<path d="M7297 7881 c-10 -14 -10 -14 4 -4 9 7 18 10 21 7 3 -3 8 -1 12 4 9
16 -24 9 -37 -7z"/>
<path d="M7471 7897 c2 -1 13 -9 24 -17 19 -14 19 -14 6 3 -7 9 -18 17 -24 17
-6 0 -8 -1 -6 -3z"/>
<path d="M6990 7886 c0 -2 8 -10 18 -17 15 -13 16 -12 3 4 -13 16 -21 21 -21
13z"/>
<path d="M7389 7873 c-13 -16 -12 -17 4 -4 9 7 17 15 17 17 0 8 -8 3 -21 -13z"/>
<path d="M6920 7870 c-9 -6 -10 -10 -3 -10 6 0 15 5 18 10 8 12 4 12 -15 0z"/>
<path d="M7080 7865 c-7 -8 -16 -12 -21 -9 -5 3 -9 0 -9 -5 0 -17 15 -13 35 9
10 11 16 20 13 20 -3 0 -11 -7 -18 -15z"/>
<path d="M7154 7863 c21 -25 36 -30 36 -11 0 6 -3 8 -7 5 -3 -4 -16 1 -27 10
-21 18 -21 18 -2 -4z"/>
<path d="M7240 7865 c-7 -8 -16 -13 -20 -10 -5 3 -11 2 -14 -3 -10 -17 24 -8
41 10 9 10 14 18 11 18 -3 0 -11 -7 -18 -15z"/>
<path d="M7471 7863 c7 -12 15 -20 18 -17 3 2 -3 12 -13 22 -17 16 -18 16 -5
-5z"/>
<path d="M6973 7855 c0 -8 3 -13 5 -10 3 3 12 -1 21 -7 10 -8 9 -4 -3 10 -23
26 -23 26 -23 7z"/>
<path d="M7315 7860 c-4 -6 -10 -8 -14 -6 -4 3 -8 -1 -8 -9 0 -10 4 -12 12 -5
7 5 14 8 17 5 2 -3 5 2 5 10 0 18 -3 19 -12 5z"/>
<path d="M7406 7855 c-18 -14 -18 -14 1 -12 11 0 20 7 20 14 0 7 -1 13 -1 13
-1 0 -9 -7 -20 -15z"/>
<path d="M6854 7816 c1 -8 5 -18 8 -22 4 -3 5 1 4 10 -1 8 -5 18 -8 22 -4 3
-5 -1 -4 -10z"/>
<path d="M6973 7815 c0 -8 4 -12 9 -9 5 3 6 10 3 15 -9 13 -12 11 -12 -6z"/>
<path d="M7019 7803 c-13 -16 -12 -17 4 -4 9 7 17 15 17 17 0 8 -8 3 -21 -13z"/>
<path d="M7440 7806 c0 -8 4 -17 9 -20 5 -4 7 3 4 14 -6 23 -13 26 -13 6z"/>
<path d="M6910 7806 c0 -2 8 -10 18 -17 15 -13 16 -12 3 4 -13 16 -21 21 -21
13z"/>
<path d="M7194 7785 c0 -14 4 -25 8 -25 4 0 7 9 5 20 -5 29 -13 33 -13 5z"/>
<path d="M7350 7806 c0 -2 9 -6 20 -9 11 -3 18 -1 14 4 -5 9 -34 13 -34 5z"/>
<path d="M7237 7779 c12 -12 24 -21 27 -18 2 2 -8 13 -22 23 l-27 19 22 -24z"/>
<path d="M7388 7778 c-10 -10 -14 -18 -9 -18 10 0 36 29 30 34 -2 1 -12 -6
-21 -16z"/>
<path d="M7103 7774 c9 -12 14 -23 11 -26 -3 -3 0 -9 7 -14 7 -4 10 -3 5 4 -3
5 -2 12 3 14 5 1 -3 12 -17 22 -27 20 -27 20 -9 0z"/>
<path d="M6893 7763 c0 -9 4 -10 14 -2 7 6 13 12 13 14 0 1 -6 2 -13 2 -8 0
-14 -6 -14 -14z"/>
<path d="M7285 7769 c-4 -6 -5 -12 -2 -15 2 -3 7 2 10 11 7 17 1 20 -8 4z"/>
<path d="M7326 7772 c-3 -5 1 -9 9 -9 8 0 12 4 9 9 -3 4 -7 8 -9 8 -2 0 -6 -4
-9 -8z"/>
<path d="M7072 7757 c-8 -10 -6 -13 11 -14 12 0 16 1 9 4 -6 3 -10 9 -6 14 8
14 -2 11 -14 -4z"/>
<path d="M7431 7762 c-1 -7 -6 -10 -13 -6 -6 4 -8 3 -5 -4 8 -12 32 -10 44 3
4 4 3 5 -4 2 -6 -4 -14 -1 -16 5 -4 10 -6 10 -6 0z"/>
<path d="M7232 7755 c4 -4 0 -14 -10 -21 -9 -7 -15 -14 -12 -17 3 -2 13 4 23
13 15 14 16 20 5 26 -7 4 -10 4 -6 -1z"/>
<path d="M6933 7735 c0 -8 4 -15 9 -15 4 0 8 4 8 9 0 6 -4 12 -8 15 -5 3 -9
-1 -9 -9z"/>
<path d="M7315 7740 c-8 -13 3 -30 18 -30 7 0 6 4 -3 10 -13 9 -13 11 0 20 9
6 10 10 3 10 -6 0 -15 -4 -18 -10z"/>
<path d="M7357 7743 c-10 -9 -9 -23 1 -23 5 0 9 7 9 15 0 17 -1 18 -10 8z"/>
<path d="M7392 7736 c7 -8 15 -12 17 -11 5 6 -10 25 -20 25 -5 0 -4 -6 3 -14z"/>
<path d="M7020 7736 c0 -2 8 -10 18 -17 15 -13 16 -12 3 4 -13 16 -21 21 -21
13z"/>
<path d="M7270 7722 c0 -7 -5 -10 -12 -6 -7 4 -8 3 -4 -5 4 -6 12 -9 17 -6 5
4 9 1 9 -6 0 -7 3 -10 6 -6 3 3 1 14 -5 24 -6 11 -11 13 -11 5z"/>
<path d="M6988 7713 c6 -3 10 -9 6 -14 -8 -14 2 -11 14 4 8 10 6 13 -11 14
-12 0 -16 -1 -9 -4z"/>
<path d="M7067 7703 c3 -7 6 -13 8 -13 1 0 7 6 13 13 8 10 6 13 -7 13 -11 0
-17 -6 -14 -13z"/>
<path d="M7110 7716 c0 -2 7 -7 16 -10 8 -3 12 -2 9 4 -6 10 -25 14 -25 6z"/>
<path d="M7233 7690 c0 -23 3 -28 9 -16 5 9 5 23 0 32 -6 12 -9 7 -9 -16z"/>
<path d="M7374 7709 c-4 -7 -3 -9 4 -5 5 3 13 0 15 -6 4 -9 6 -10 6 -1 1 17
-16 25 -25 12z"/>
<path d="M6951 7697 c2 -1 13 -9 24 -17 19 -14 19 -14 6 3 -7 9 -18 17 -24 17
-6 0 -8 -1 -6 -3z"/>
<path d="M7200 7690 c-9 -6 -10 -10 -3 -10 6 0 15 5 18 10 8 12 4 12 -15 0z"/>
<path d="M7316 7685 c-9 -26 -7 -32 5 -12 6 10 9 21 6 23 -2 3 -7 -2 -11 -11z"/>
<path d="M7152 7661 c7 -9 13 -18 15 -20 1 -2 1 5 0 16 0 11 -7 20 -14 20 -10
0 -10 -4 -1 -16z"/>
<path d="M7255 7669 c-6 -8 -4 -10 5 -4 10 6 12 4 6 -11 -6 -15 -5 -17 5 -6 9
9 10 15 2 23 -8 8 -13 7 -18 -2z"/>
<path d="M7340 7670 c-9 -6 -10 -10 -3 -10 6 0 15 5 18 10 8 12 4 12 -15 0z"/>
<path d="M7180 7664 c0 -5 6 -18 13 -29 12 -15 15 -16 22 -4 5 8 4 10 0 6 -5
-4 -15 3 -22 15 -7 13 -12 18 -13 12z"/>
<path d="M2676 7003 c-6 -14 -5 -15 5 -6 7 7 10 15 7 18 -3 3 -9 -2 -12 -12z"/>
<path d="M2746 6987 c3 -10 9 -15 12 -12 3 3 0 11 -7 18 -10 9 -11 8 -5 -6z"/>
<path d="M2689 6973 c-13 -16 -12 -17 4 -4 9 7 17 15 17 17 0 8 -8 3 -21 -13z"/>
<path d="M2855 5851 c-3 -5 -2 -12 3 -15 5 -3 9 1 9 9 0 17 -3 19 -12 6z"/>
<path d="M2899 5843 c-13 -16 -12 -17 4 -4 16 13 21 21 13 21 -2 0 -10 -8 -17
-17z"/>
<path d="M2850 5805 c5 -7 6 -16 2 -21 -4 -5 -3 -5 2 -1 15 12 15 34 0 34 -9
0 -11 -4 -4 -12z"/>
<path d="M2893 5805 c0 -8 4 -12 9 -9 5 3 6 10 3 15 -9 13 -12 11 -12 -6z"/>
<path d="M7242 5054 c10 -10 20 -16 22 -13 3 3 -5 11 -17 18 -21 13 -21 12 -5
-5z"/>
<path d="M2617 5020 c3 -11 9 -20 15 -20 5 0 4 9 -2 20 -6 11 -12 20 -14 20
-2 0 -2 -9 1 -20z"/>
<path d="M2435 5020 c-4 -6 -12 -7 -18 -4 -7 4 -8 3 -4 -1 13 -15 34 -14 34 1
0 17 -4 18 -12 4z"/>
<path d="M7236 5003 c-6 -14 -5 -15 5 -6 7 7 10 15 7 18 -3 3 -9 -2 -12 -12z"/>
<path d="M2473 4995 c0 -8 4 -12 9 -9 5 3 6 10 3 15 -9 13 -12 11 -12 -6z"/>
<path d="M2510 4985 c5 -7 7 -15 3 -18 -3 -4 -1 -7 5 -7 6 0 10 8 9 18 0 10
-7 19 -14 19 -9 0 -10 -4 -3 -12z"/>
<path d="M2590 4991 c0 -5 8 -15 18 -22 15 -12 16 -12 5 2 -7 9 -10 19 -6 22
3 4 1 7 -5 7 -7 0 -12 -4 -12 -9z"/>
<path d="M2413 4975 c0 -8 3 -13 6 -12 3 1 16 -4 29 -11 31 -17 28 -10 -6 15
-20 15 -29 17 -29 8z"/>
<path d="M2655 4971 c-3 -5 -2 -12 3 -15 5 -3 9 1 9 9 0 17 -3 19 -12 6z"/>
<path d="M2476 4957 c3 -10 9 -15 12 -12 3 3 0 11 -7 18 -10 9 -11 8 -5 -6z"/>
<path d="M2626 4953 c-6 -14 -5 -15 5 -6 7 7 10 15 7 18 -3 3 -9 -2 -12 -12z"/>
<path d="M2374 4939 c-3 -6 -2 -15 3 -20 5 -5 9 -1 9 11 0 23 -2 24 -12 9z"/>
<path d="M2414 4930 c0 -13 4 -16 10 -10 7 7 7 13 0 20 -6 6 -10 3 -10 -10z"/>
<path d="M2440 4936 c0 -2 8 -10 18 -17 15 -13 16 -12 3 4 -13 16 -21 21 -21
13z"/>
<path d="M2686 4932 c-3 -5 1 -9 9 -9 8 0 12 4 9 9 -3 4 -7 8 -9 8 -2 0 -6 -4
-9 -8z"/>
<path d="M2595 4911 c-3 -5 -2 -12 3 -15 5 -3 9 1 9 9 0 17 -3 19 -12 6z"/>
<path d="M2629 4907 c7 -7 5 -14 -6 -22 -13 -10 -13 -14 -3 -20 8 -5 11 -4 7
2 -10 16 18 23 34 10 7 -7 6 -3 -4 9 -9 11 -15 23 -12 26 3 2 -2 5 -10 5 -11
0 -12 -4 -6 -10z"/>
<path d="M2356 4897 c3 -10 9 -15 12 -12 3 3 0 11 -7 18 -10 9 -11 8 -5 -6z"/>
<path d="M2430 4889 c0 -5 5 -7 10 -4 6 3 10 8 10 11 0 2 -4 4 -10 4 -5 0 -10
-5 -10 -11z"/>
<path d="M2496 4892 c-3 -4 4 -9 15 -9 23 -2 25 3 4 10 -8 4 -16 3 -19 -1z"/>
<path d="M2335 4870 c-3 -5 -1 -10 4 -10 6 0 11 5 11 10 0 6 -2 10 -4 10 -3 0
-8 -4 -11 -10z"/>
<path d="M2696 4857 c3 -10 9 -15 12 -12 3 3 0 11 -7 18 -10 9 -11 8 -5 -6z"/>
<path d="M7933 4855 c0 -8 4 -12 9 -9 5 3 6 10 3 15 -9 13 -12 11 -12 -6z"/>
<path d="M2433 4841 c1 -12 10 -30 21 -39 20 -16 20 -16 6 2 -8 10 -15 25 -16
33 -4 24 -13 27 -11 4z"/>
<path d="M2656 4843 c-6 -14 -5 -15 5 -6 7 7 10 15 7 18 -3 3 -9 -2 -12 -12z"/>
<path d="M2513 4835 c0 -8 10 -23 21 -32 21 -18 21 -18 4 2 -9 11 -17 24 -16
28 0 5 -2 11 -4 13 -3 2 -5 -3 -5 -11z"/>
<path d="M2384 4832 c4 -3 14 -7 22 -8 9 -1 13 0 10 4 -4 3 -14 7 -22 8 -9 1
-13 0 -10 -4z"/>
<path d="M2464 4832 c4 -3 14 -7 22 -8 9 -1 13 0 10 4 -4 3 -14 7 -22 8 -9 1
-13 0 -10 -4z"/>
<path d="M2544 4832 c4 -3 14 -7 22 -8 9 -1 13 0 10 4 -4 3 -14 7 -22 8 -9 1
-13 0 -10 -4z"/>
<path d="M2596 4831 c-3 -4 3 -16 13 -25 14 -13 18 -14 18 -2 0 8 -5 14 -11
13 -6 -1 -10 4 -8 11 2 14 -4 16 -12 3z"/>
<path d="M2335 4821 c-3 -5 -2 -12 3 -15 5 -3 9 1 9 9 0 17 -3 19 -12 6z"/>
<path d="M2675 4820 c-4 -6 -10 -8 -14 -6 -4 3 -8 -1 -8 -9 0 -13 4 -12 19 2
18 16 22 23 14 23 -3 0 -8 -5 -11 -10z"/>
<path d="M2360 4816 c0 -2 8 -10 18 -17 15 -13 16 -12 3 4 -13 16 -21 21 -21
13z"/>
<path d="M2680 4785 c-6 -8 -10 -19 -8 -24 1 -6 8 1 15 14 13 28 11 31 -7 10z"/>
<path d="M2406 4771 c8 -9 44 -11 44 -3 0 4 -11 8 -25 8 -13 0 -22 -2 -19 -5z"/>
<path d="M2486 4771 c8 -8 64 -10 64 -2 0 4 -16 7 -35 7 -19 0 -32 -2 -29 -5z"/>
<path d="M2614 4759 c1 -7 13 -14 27 -16 18 -2 20 -1 9 6 -8 5 -17 8 -21 5 -4
-2 -10 1 -12 6 -3 6 -4 5 -3 -1z"/>
<path d="M2564 4749 c-4 -7 -3 -9 4 -5 7 4 10 -2 9 -14 -1 -12 -6 -19 -14 -16
-7 3 -13 1 -13 -5 0 -20 33 -4 36 18 4 25 -11 39 -22 22z"/>
<path d="M2455 4739 c-4 -6 -5 -12 -2 -15 2 -3 7 2 10 11 7 17 1 20 -8 4z"/>
<path d="M2496 4737 c3 -10 9 -15 12 -12 3 3 0 11 -7 18 -10 9 -11 8 -5 -6z"/>
<path d="M2600 4726 c0 -8 4 -17 9 -20 5 -4 7 3 4 14 -6 23 -13 26 -13 6z"/>
<path d="M2630 4719 c0 -5 5 -7 10 -4 6 3 10 8 10 11 0 2 -4 4 -10 4 -5 0 -10
-5 -10 -11z"/>
<path d="M1251 4697 c-8 -10 -7 -14 2 -14 8 0 14 6 14 14 0 7 -1 13 -2 13 -2
0 -8 -6 -14 -13z"/>
<path d="M2453 4695 c0 -8 4 -12 9 -9 5 3 6 10 3 15 -9 13 -12 11 -12 -6z"/>
<path d="M2490 4700 c-8 -5 -12 -12 -9 -15 4 -3 12 1 19 10 14 17 11 19 -10 5z"/>
<path d="M1307 4669 c7 -7 15 -10 18 -7 3 3 -2 9 -12 12 -14 6 -15 5 -6 -5z"/>
<path d="M1255 4660 c-4 -6 -12 -7 -18 -4 -7 4 -8 3 -4 -1 13 -15 34 -14 34 1
0 17 -4 18 -12 4z"/>
<path d="M5789 4213 c-13 -16 -12 -17 4 -4 9 7 17 15 17 17 0 8 -8 3 -21 -13z"/>
<path d="M390 3708 c0 -4 4 -8 9 -8 6 0 12 4 15 8 3 5 -1 9 -9 9 -8 0 -15 -4
-15 -9z"/>
<path d="M453 3682 c-1 -22 0 -24 9 -8 6 10 6 22 2 26 -5 5 -10 -3 -11 -18z"/>
<path d="M419 3683 c-13 -16 -12 -17 4 -4 9 7 17 15 17 17 0 8 -8 3 -21 -13z"/>
<path d="M9164 3412 c4 -3 14 -7 22 -8 9 -1 13 0 10 4 -4 3 -14 7 -22 8 -9 1
-13 0 -10 -4z"/>
<path d="M9176 3377 c3 -10 9 -15 12 -12 3 3 0 11 -7 18 -10 9 -11 8 -5 -6z"/>
<path d="M7038 2552 c-32 -19 -64 -77 -59 -107 2 -11 4 -25 5 -31 1 -6 9 -23
19 -37 63 -96 217 -51 222 66 5 96 -105 160 -187 109z"/>
<path d="M5827 2529 c7 -7 15 -10 18 -7 3 3 -2 9 -12 12 -14 6 -15 5 -6 -5z"/>
<path d="M5715 2479 c-4 -6 -5 -12 -2 -15 2 -3 7 2 10 11 7 17 1 20 -8 4z"/>
<path d="M5790 2450 c0 -5 5 -10 11 -10 5 0 7 5 4 10 -3 6 -8 10 -11 10 -2 0
-4 -4 -4 -10z"/>
<path d="M5715 2419 c-4 -6 -5 -12 -2 -15 2 -3 7 2 10 11 7 17 1 20 -8 4z"/>
<path d="M1385 2106 c-85 -77 -72 -201 27 -250 53 -27 92 -26 145 1 36 19 83
96 77 128 -11 68 -17 84 -42 107 -42 39 -68 49 -122 47 -40 -2 -57 -9 -85 -33z"/>
<path d="M1916 1943 c-6 -14 -5 -15 5 -6 7 7 10 15 7 18 -3 3 -9 -2 -12 -12z"/>
<path d="M7659 1287 c-53 -24 -92 -91 -83 -142 18 -100 106 -150 197 -112 39
17 55 36 72 83 38 112 -78 219 -186 171z"/>
<path d="M1416 908 c3 -5 10 -6 15 -3 13 9 11 12 -6 12 -8 0 -12 -4 -9 -9z"/>
<path d="M7453 905 c0 -8 4 -12 9 -9 5 3 6 10 3 15 -9 13 -12 11 -12 -6z"/>
<path d="M1454 866 c1 -8 5 -18 8 -22 4 -3 5 1 4 10 -1 8 -5 18 -8 22 -4 3 -5
-1 -4 -10z"/>
<path d="M7416 872 c-3 -5 1 -9 9 -9 8 0 12 4 9 9 -3 4 -7 8 -9 8 -2 0 -6 -4
-9 -8z"/>
<path d="M7456 828 c3 -5 10 -6 15 -3 13 9 11 12 -6 12 -8 0 -12 -4 -9 -9z"/>
<path d="M1475 821 c-3 -5 -2 -12 3 -15 5 -3 9 1 9 9 0 17 -3 19 -12 6z"/>
</g>
</svg>
